<svg width="24" height="24" viewBox="0 0 24 24" fill="none" xmlns="http://www.w3.org/2000/svg">
<path d="M23 16.8963C23 17.1324 22.9034 17.3589 22.7315 17.5258C22.5596 17.6928 22.3264 17.7866 22.0833 17.7866H19.6542C19.4547 18.4267 19.0484 18.9876 18.4954 19.3862C17.9424 19.7848 17.272 20 16.5833 20C15.8947 20 15.2242 19.7848 14.6712 19.3862C14.1182 18.9876 13.712 18.4267 13.5125 17.7866H1.91667C1.67355 17.7866 1.44039 17.6928 1.26849 17.5258C1.09658 17.3589 1 17.1324 1 16.8963C1 16.6602 1.09658 16.4338 1.26849 16.2668C1.44039 16.0999 1.67355 16.0061 1.91667 16.0061H13.5125C13.712 15.3659 14.1182 14.8051 14.6712 14.4065C15.2242 14.0079 15.8947 13.7926 16.5833 13.7926C17.272 13.7926 17.9424 14.0079 18.4954 14.4065C19.0484 14.8051 19.4547 15.3659 19.6542 16.0061H22.0833C22.3264 16.0061 22.5596 16.0999 22.7315 16.2668C22.9034 16.4338 23 16.6602 23 16.8963ZM1.91667 7.99392H6.17917C6.37862 8.63409 6.78489 9.19493 7.3379 9.59354C7.89091 9.99215 8.56132 10.2074 9.25 10.2074C9.93868 10.2074 10.6091 9.99215 11.1621 9.59354C11.7151 9.19493 12.1214 8.63409 12.3208 7.99392H22.0833C22.3264 7.99392 22.5596 7.90013 22.7315 7.73318C22.9034 7.56622 23 7.33979 23 7.10368C23 6.86758 22.9034 6.64114 22.7315 6.47419C22.5596 6.30723 22.3264 6.21344 22.0833 6.21344H12.3208C12.1214 5.57328 11.7151 5.01243 11.1621 4.61382C10.6091 4.21521 9.93868 4 9.25 4C8.56132 4 7.89091 4.21521 7.3379 4.61382C6.78489 5.01243 6.37862 5.57328 6.17917 6.21344H1.91667C1.67355 6.21344 1.44039 6.30723 1.26849 6.47419C1.09658 6.64114 1 6.86758 1 7.10368C1 7.33979 1.09658 7.56622 1.26849 7.73318C1.44039 7.90013 1.67355 7.99392 1.91667 7.99392Z" fill="#4DB663"/>
</svg>
