<svg width="83" height="24" viewBox="0 0 83 24" fill="none" xmlns="http://www.w3.org/2000/svg">
<path d="M17.6262 23.9849C21.0592 23.9849 23.8422 21.0838 23.8422 17.5051C23.8422 13.9265 21.0592 11.0254 17.6262 11.0254C14.1932 11.0254 11.4102 13.9265 11.4102 17.5051C11.4102 21.0838 14.1932 23.9849 17.6262 23.9849Z" fill="#97CF26"/>
<path d="M5.94031 20.5207C7.5383 20.5207 8.83374 19.1703 8.83374 17.5045C8.83374 15.8387 7.5383 14.4883 5.94031 14.4883C4.34231 14.4883 3.04688 15.8387 3.04688 17.5045C3.04688 19.1703 4.34231 20.5207 5.94031 20.5207Z" fill="#A169F7"/>
<path d="M17.626 9.49572C19.8356 9.49572 21.6269 7.62843 21.6269 5.32501C21.6269 3.02159 19.8356 1.1543 17.626 1.1543C15.4163 1.1543 13.625 3.02159 13.625 5.32501C13.625 7.62843 15.4163 9.49572 17.626 9.49572Z" fill="#FF6163"/>
<path d="M5.94053 10.6505C8.76187 10.6505 11.049 8.26628 11.049 5.32524C11.049 2.38419 8.76187 0 5.94053 0C3.11918 0 0.832031 2.38419 0.832031 5.32524C0.832031 8.26628 3.11918 10.6505 5.94053 10.6505Z" fill="#00AAFF"/>
<path d="M40.0003 20.4857H43.2271L37.2512 3.52344H34.9107L28.9336 20.4863H32.1607L33.302 17.2484H38.859L40.0003 20.4863L34.2007 14.6958L36.0808 9.36186L37.9597 14.6958H34.2007L40.0003 20.4857ZM51.2263 8.90525L48.2567 17.3315L45.2885 8.90525H42.2567L46.3385 20.4857H50.1755L54.2568 8.90525H51.2257H51.2263ZM55.5257 8.90525H58.5576V20.4857H55.5257V8.90525Z" fill="black"/>
<path d="M57.0538 7.59118C58.132 7.59118 59.006 6.68014 59.006 5.55633C59.006 4.43252 58.132 3.52148 57.0538 3.52148C55.9756 3.52148 55.1016 4.43252 55.1016 5.55633C55.1016 6.68014 55.9756 7.59118 57.0538 7.59118Z" fill="black"/>
<path d="M69.2627 11.4576V8.9055H65.6309V5.71094H62.6009V8.9055H60.2031V11.4576H62.6009V16.4399C62.6009 19.0099 63.8336 20.7252 66.9812 20.7252C68.1967 20.7252 69.2627 20.2599 69.2627 20.2599L68.8945 17.7595C68.8945 17.7595 68.2978 17.9454 67.5641 17.9454C66.6648 17.9454 65.6309 17.5413 65.6309 16.2454V11.4573H69.2627V11.4576ZM76.2153 17.8389C74.5249 17.8389 73.1552 16.4419 73.1552 14.7188C73.1552 12.9971 74.5249 11.5999 76.2147 11.5999C77.9057 11.5999 79.2748 12.9974 79.2748 14.7191C79.2748 16.4422 77.9057 17.8392 76.2153 17.8392V17.8389ZM76.2153 8.60994C72.9292 8.60994 70.2642 11.3274 70.2642 14.677C70.2642 18.028 72.9292 20.744 76.215 20.744C79.4994 20.744 82.1644 18.028 82.1644 14.677C82.1644 11.3274 79.4994 8.60994 76.2147 8.60994" fill="black"/>
</svg>
