<svg width="97" height="24" viewBox="0 0 97 24" fill="none" xmlns="http://www.w3.org/2000/svg">
<g clip-path="url(#clip0_4878_110493)">
<path d="M46.1377 10.0956C45.8097 10.4796 44.9537 11.1436 44.3777 11.5356C44.5777 12.8636 44.9057 14.1356 45.1937 15.0236C45.5217 16.0396 46.1057 17.1276 45.6097 17.4636C45.6097 17.4636 45.0257 17.8476 43.9377 17.8476C42.6977 17.8476 42.1217 13.4556 42.1217 12.1996H41.9217C41.7217 13.3276 40.8257 16.4876 40.3697 17.5356C40.3697 17.5916 40.0417 17.7916 39.8417 17.7916C39.3857 17.7916 38.0977 16.3356 38.0977 15.7436C38.0977 15.3596 38.3537 14.6956 38.6097 13.7836C38.8817 12.7356 41.4097 5.49557 41.5937 5.36757C41.7937 5.16757 41.9937 4.90357 42.2977 4.90357C42.6977 4.90357 43.9377 5.62357 43.9377 6.21557C43.9377 6.47157 43.6657 7.06357 43.5377 7.59957C43.3377 8.19157 43.0257 9.11957 42.8257 9.57557C44.1937 8.98357 46.3217 5.16757 46.5937 4.95957C46.7777 4.77557 46.9777 4.77557 47.1777 4.83157C47.7617 5.16757 48.1377 6.47157 48.1377 6.87957C48.1377 8.06357 46.7777 9.50357 46.1377 10.0956" fill="#FF4D4D"/>
<path d="M85.3209 10.0728C85.0089 10.4088 84.0969 11.1288 83.5689 11.5128C83.7689 12.8408 84.0649 14.0808 84.3209 14.9848C84.4089 15.3688 85.2649 17.1048 84.8089 17.4408C84.8089 17.4408 84.2329 17.8248 83.1209 17.8248C81.8969 17.8248 81.3209 13.4328 81.3209 12.1768H81.1209C80.9209 13.3048 80.0089 16.4648 79.5529 17.5128C79.4809 17.6968 79.3129 17.7928 79.0409 17.7688C78.5849 17.7688 77.2969 16.3128 77.2969 15.7208C77.2969 15.3368 77.5529 14.6168 77.8089 13.7608C78.0089 12.7128 80.6649 5.52883 80.7929 5.34483C81.2489 4.48083 82.9929 5.34483 83.0649 6.19283C83.1209 6.45683 82.8649 7.12083 82.7369 7.57683C82.5369 8.16883 82.2089 9.09683 82.0249 9.55283C83.3929 8.96083 85.5209 5.14483 85.7769 4.93683C85.9769 4.75283 86.3049 4.75283 86.5049 4.93683C86.9369 5.34483 87.3369 6.45683 87.3369 6.85683C87.3449 8.04083 85.9049 9.48083 85.3209 10.0728" fill="#FF4D4D"/>
<path d="M39.7944 8.36761C38.8904 11.8556 34.3544 19.7996 31.8984 22.4396C31.5784 22.7756 30.7384 23.4156 30.4104 23.4156C29.5544 23.4156 29.0424 21.1276 29.4264 20.7996C30.8664 19.3596 31.4984 18.5596 32.8664 16.7196C31.8264 16.3836 31.3224 16.3276 31.3224 14.9996C31.3224 12.5836 31.6824 9.49561 32.0824 7.19161C32.2104 6.51961 32.6664 5.83961 32.8664 5.79961C32.9944 5.76761 33.1784 5.78361 33.3384 5.82361C34.0824 6.02361 35.1384 6.71161 35.1384 7.23961C35.1384 7.44761 34.8344 9.59161 34.7384 10.4716C34.7064 10.9356 34.3064 14.2796 34.3064 14.4796C35.8504 11.5276 36.6344 8.49561 37.7224 5.93561C37.7944 5.79961 38.1224 5.59961 38.2504 5.59961C38.9624 5.59961 39.9944 7.05561 39.9224 7.57561C39.9224 7.83161 39.8664 8.09561 39.7944 8.36761" fill="#FF4D4D"/>
<path d="M79.0262 8.36761C78.1222 11.8556 73.5862 19.7996 71.0582 22.4396C70.7302 22.7756 69.9702 23.4156 69.6422 23.4156C68.7302 23.4156 68.2742 21.1276 68.6022 20.7996C70.0262 19.3596 70.7302 18.5596 72.0982 16.7196C71.0582 16.3836 70.5462 16.3276 70.5462 14.9996C70.5462 12.5836 70.8582 9.47961 71.2582 7.19161C71.3862 6.51961 71.6422 5.93561 72.0422 5.79961C72.7542 5.67161 74.3702 6.72761 74.3702 7.23961C74.3702 7.44761 73.9702 9.60761 73.9142 10.4716C73.9142 10.9356 73.5142 14.2796 73.5142 14.4796C75.0822 11.5276 75.8662 8.49561 76.9542 5.93561C77.0262 5.79961 77.2822 5.59961 77.4822 5.59961C78.1222 5.59961 79.2262 7.05561 79.1542 7.57561C79.1542 7.83161 79.0982 8.09561 79.0262 8.36761" fill="#FF4D4D"/>
<path d="M66.8991 4.58322C66.8991 4.38322 66.5711 4.04722 66.2671 3.84722C66.0431 3.69522 65.8271 3.53522 65.6111 3.39922C65.4431 3.31122 65.2671 3.27122 65.0831 3.19922C64.5551 3.25522 64.3551 4.30322 64.3151 4.63922C64.2591 4.99122 64.1871 5.63922 64.1871 5.63922C63.7871 5.69522 63.2831 5.93522 63.1551 6.15122C63.0111 6.37522 62.8831 6.55922 62.8431 6.91122C62.7551 7.79922 62.9551 8.99922 63.2031 9.25522C62.5711 11.7512 60.3311 17.2712 59.7711 19.4472C59.6431 19.9432 59.6591 20.0952 60.0431 20.5032C60.4831 20.9592 61.3311 21.6072 61.5871 21.6072C61.9711 21.6072 62.2271 21.2792 62.2991 21.0952C62.6591 20.0952 63.4831 17.7352 63.9151 16.4952C63.9151 16.7512 64.5711 17.1752 64.8271 17.1752C65.1551 17.1752 65.7391 16.9512 66.2671 16.5512C66.4831 16.3832 66.6991 16.1592 66.8991 15.9592C68.8511 13.9272 70.3951 11.5432 70.3951 8.33522C70.3951 6.61522 68.9231 4.32722 66.8991 5.30322C66.8991 4.91922 66.8991 4.71122 66.8991 4.58322V4.58322ZM66.2671 12.2872C66.2111 12.3352 66.1951 12.3912 66.1151 12.4712C65.8431 12.7992 65.4271 13.1352 64.8991 13.3912C64.9711 12.8552 65.4111 10.9592 66.2671 8.64722C66.3551 8.42322 67.0991 8.39122 67.2991 8.39122C67.6271 8.42322 67.6991 8.59122 67.6831 8.92722C67.6431 9.59122 66.8991 11.3592 66.2671 12.2872V12.2872Z" fill="#FF4D4D"/>
<path d="M17.1224 10.6561C17.8264 11.0401 18.2104 11.8321 18.2104 12.6801C18.2104 14.4721 16.8504 16.5041 15.4984 17.4321C15.2264 17.6321 14.4664 17.8161 13.9384 17.8161C13.1544 17.8161 11.9944 17.2241 11.4824 16.6321C11.1544 16.3041 10.8984 15.5281 10.8984 15.1921C10.8984 14.9921 11.0424 14.7121 11.3144 14.3681C11.5704 14.0321 11.8584 13.6801 12.0664 13.6801C12.2424 13.6801 12.4424 13.7361 12.5704 13.8641C12.6984 14.0161 12.9864 14.3041 13.0984 14.4001L13.4824 14.7361C13.6664 14.8801 13.8104 14.9201 13.8104 14.9201C14.7224 14.9201 15.4264 13.7361 15.4264 12.9601C15.4264 12.6241 15.2984 12.2961 14.8984 12.2961C14.5224 12.2961 13.6104 12.8881 13.0264 12.8881C12.4424 12.8881 12.3944 10.9841 12.5704 10.8561C12.5704 10.8561 12.7144 10.7601 12.9144 10.6321C13.2104 10.4881 13.6104 10.2641 13.9384 10.1201C15.2264 9.60008 15.8104 8.62408 15.4264 8.28808C14.8424 7.69608 13.7384 9.47208 13.0264 9.47208C12.5704 9.47208 12.6424 8.47208 12.6424 8.28808C12.6424 7.29608 14.1384 5.92808 14.8424 5.77608C16.2664 5.52008 16.9784 5.39208 18.0104 6.52008C18.3384 6.83208 18.5384 7.62408 18.5384 8.16008C18.5384 9.80008 17.6264 10.3201 17.1224 10.6561" fill="#FF4D4D"/>
<path d="M92.9075 18.1036C92.9075 18.1036 92.5795 18.7676 92.2035 18.7676C91.8755 18.7436 91.0355 18.4316 90.7075 18.2316C90.2035 18.0236 90.1235 17.1036 90.3795 16.7196C89.1635 17.6396 88.2515 18.1036 87.6675 18.1036C86.3795 18.0236 86.0515 15.7356 86.1075 14.7356C86.2355 12.7676 88.5795 5.59961 89.8035 5.59961C90.2515 5.59961 91.6195 6.31961 91.5475 7.11161L90.9635 8.29561C90.8355 8.95961 87.8515 15.4636 89.1635 15.1436C89.5395 15.0716 89.8675 14.7356 90.5795 14.2796C90.9635 12.7676 91.4035 11.3036 91.7475 10.3436C91.9795 9.71961 93.0355 6.78361 93.8915 6.06361C94.1475 5.85561 94.4035 5.85561 94.6595 6.06361C95.3075 6.39161 96.0195 7.50361 95.8355 7.96761C94.2035 11.8236 93.2035 13.6476 92.9075 18.1036" fill="#FF4D4D"/>
<path d="M13.6588 3.88C12.2908 5.8 9.89075 12.04 9.43475 17.304C9.37875 17.632 8.97875 17.968 8.52275 17.968C8.27475 17.952 7.17875 16.968 6.97875 16.84C6.01875 15.864 6.85075 12.704 7.69075 10.528C5.94675 11.784 3.41875 17.192 2.37875 17.224C1.79475 17.264 0.92275 16.4 0.62675 15.952C0.52275 15.808 0.48275 15.656 0.50675 15.584C1.13875 11.912 3.66675 4.544 5.23475 0.592C5.23475 0.592 5.56275 0 5.81875 0C6.32275 0 7.72275 1.584 7.69075 1.904C7.70675 2.2 7.67475 2.472 7.59475 2.736C7.52275 2.992 7.43475 3.272 7.36275 3.456C6.69075 5.28 5.94675 7.296 5.23475 9.088C7.36275 6.112 9.89075 3.36 12.3628 0.848C12.4908 0.792 12.8187 0.792 12.9467 0.92C13.4587 1.256 14.1147 2.768 14.1147 2.952C14.1147 3.232 13.6588 3.88 13.6588 3.88" fill="#FF4D4D"/>
<path d="M55.7791 4.87911C55.7071 4.54311 55.6671 4.26311 55.3951 3.82311C55.3551 3.72711 55.2671 3.69511 55.1951 3.54311C54.4831 2.95911 53.8111 3.19911 53.2671 3.69511C53.1951 3.72711 52.9391 4.07911 52.7551 4.43111C52.5791 4.76711 52.3951 5.43111 52.3551 5.52711C51.7711 5.52711 50.9951 5.98311 50.7951 6.44711C50.4111 7.36711 50.8671 8.29511 50.6111 9.34311C49.8831 11.6551 48.6671 13.8151 49.6991 16.0471C50.3391 17.5031 51.4991 18.1511 52.9951 18.1511C53.9391 18.1511 54.6671 17.9511 55.3951 17.3031C56.8111 15.9911 57.3391 13.5591 56.8831 11.6551C58.3071 10.7271 59.4911 9.39911 59.3391 7.75911C59.1631 5.65511 57.3391 4.87911 55.7791 4.87911V4.87911ZM53.2671 14.6631C52.8111 14.8071 52.2831 14.6631 52.2831 14.0151C52.2831 13.3511 52.4111 12.7031 52.7391 12.1671C52.8271 12.2951 53.1231 12.5751 53.2671 12.6311C53.4511 12.7031 53.7791 12.7031 54.0271 12.6311C54.2351 13.2231 54.1551 13.6871 53.7791 14.1991C53.6511 14.4071 53.4511 14.5351 53.2671 14.6631V14.6631ZM54.2351 10.0071C54.5791 9.25511 54.8991 8.79111 55.1951 8.43911C55.3951 8.21511 55.7791 7.71911 56.1791 7.70311C56.4831 7.68711 56.5631 7.90311 56.5631 8.16711C56.5631 8.59111 56.2351 8.80711 55.7791 9.07111L54.2351 10.0071Z" fill="#FF4D4D"/>
<path d="M27.74 4.58322C27.684 4.35922 27.356 4.04722 27.156 3.86322C27.028 3.73522 26.668 3.47922 26.668 3.47922C26.484 3.42322 26.052 3.19922 25.924 3.19922C25.412 3.19922 25.212 4.27122 25.156 4.63922C25.068 5.13522 25.012 5.63922 25.012 5.63922C24.668 5.76722 24.244 5.91122 23.972 6.15122C23.756 6.37522 23.668 6.81522 23.668 6.89522C23.668 7.94322 24.1 8.88722 24.044 9.25522C23.684 11.8392 21.172 17.3272 20.612 19.5192C20.556 19.7272 20.516 19.8712 20.5 20.0232C20.5 20.0552 20.556 20.2472 20.716 20.3912C21.172 20.8712 22.14 21.6072 22.428 21.6072C22.812 21.6072 23.028 21.3352 23.14 21.0952C23.556 20.1352 24.196 18.1032 24.756 16.4952C24.756 16.7512 25.412 17.1992 25.668 17.1992C26.052 17.1992 26.596 16.9752 27.156 16.5512C27.372 16.3832 27.596 16.1592 27.796 15.9592C29.796 13.8552 31.236 11.5432 31.236 8.33522C31.236 6.61522 29.74 4.32722 27.74 5.30322C27.796 4.95122 27.796 4.75122 27.74 4.58322V4.58322ZM26.94 12.5432C26.572 12.9272 26.252 13.1912 25.74 13.3912C25.74 13.0072 26.252 10.9592 27.084 8.66322C27.156 8.46322 27.868 8.39122 28.124 8.39122C28.452 8.39122 28.524 8.53522 28.524 8.92722C28.524 9.51122 27.756 11.3592 27.156 12.2872C27.1 12.3592 27.012 12.4712 26.94 12.5432Z" fill="#FF4D4D"/>
</g>
<defs>
<clipPath id="clip0_4878_110493">
<rect width="96" height="24" fill="white" transform="translate(0.5)"/>
</clipPath>
</defs>
</svg>
