<svg width="157" height="24" viewBox="0 0 157 24" fill="none" xmlns="http://www.w3.org/2000/svg">
<g clip-path="url(#clip0_4878_110505)">
<path d="M18.5863 4.52344H6.3125V19.3809H18.5863V4.52344Z" fill="white"/>
<path d="M12.5127 0C5.87975 0 0.5 5.382 0.5 11.9977C0.5 18.633 5.87975 24 12.5127 24C19.1202 24 24.5 18.633 24.5 11.9977C24.5 5.38275 19.1202 0 12.5127 0ZM14.0652 19.1287V6.78075H12.962C10.9355 6.78075 9.872 7.80825 9.872 9.32625C9.872 11.055 10.6062 11.8523 12.1235 12.8798L13.3707 13.7265L9.76775 19.1287H7.088L10.3212 14.298C8.45975 12.9645 7.41725 11.667 7.41725 9.47175C7.41725 6.7155 9.3185 4.84575 12.9417 4.84575H16.5402V19.1287H14.0652Z" fill="#FC3F1D"/>
</g>
<g clip-path="url(#clip1_4878_110505)">
<path d="M31.25 3.75V17.91H33.7273V11.7592H38.3577V17.9093H40.835V3.75H38.3577V9.8415H33.7273V3.75H31.25ZM50.7695 17.214V15.2415C50.0105 15.7485 48.7423 16.1955 47.5527 16.1955C45.77 16.1955 45.0957 15.3608 44.9907 13.6523H50.8693V12.3698C50.8693 8.80275 49.2913 7.46175 46.859 7.46175C43.8868 7.46175 42.473 9.72225 42.473 12.8167C42.473 16.3792 44.2362 18.1132 47.348 18.1132C48.9065 18.1132 50.0502 17.706 50.7695 17.214ZM46.814 9.375C48.0223 9.375 48.392 10.3733 48.392 11.655V11.859H44.9907C45.056 10.2292 45.6507 9.375 46.8132 9.375H46.814ZM61.559 15.993H60.4745V7.665H53.3675V8.5395C53.3675 11.0438 53.2078 14.283 52.3438 15.9923H51.59V20.25H53.8422V17.91H59.3068V20.25H61.559V15.9923V15.993ZM58.037 15.993H54.596C55.2747 14.448 55.46 11.6557 55.46 9.882V9.5775H58.037V15.9915V15.993ZM67.0475 17.91C69.4655 17.91 70.8988 16.8915 70.8988 14.934C70.8988 13.5922 70.0798 12.8175 68.7057 12.5738C69.815 12.2663 70.5095 11.4907 70.5095 10.2682C70.5095 8.52 69.3403 7.66575 67.088 7.66575H62.7875V17.91H67.0475ZM66.803 9.45375C67.682 9.45375 68.177 9.8415 68.177 10.6365C68.177 11.352 67.6423 11.7787 66.7183 11.7787H65.165V9.45375H66.803ZM66.8428 13.5472C67.8867 13.5472 68.4417 13.9148 68.4417 14.7697C68.4417 15.729 67.8268 16.116 66.8428 16.116H65.165V13.5472H66.8428ZM72.5375 7.665V17.91H74.705L78.4362 11.5755V17.91H80.7883V7.665H78.6208L74.8895 13.9995V7.665H72.5375ZM84.5998 17.91L87.836 12.8775V17.91H90.269V12.8775L93.5053 17.91H96.2728L92.6862 12.3705L95.798 7.665H93.3403L90.269 12.39V7.665H87.836V12.39L84.7647 7.665H82.2417L85.4187 12.4695L81.9177 17.91H84.5998ZM97.3962 7.665V17.91H99.569L103.295 11.5755V17.91H105.653V7.665H103.48L99.7535 13.9995V7.665H97.3962ZM116.481 17.91H118.859L118.819 7.665H115.482L113.25 14.487L111.242 7.665H107.701V17.91H109.768V10.2487L112.001 17.91H113.984L116.481 10.2487V17.91ZM125.043 7.46175C122.361 7.46175 120.497 9.354 120.497 12.7972C120.497 16.221 122.361 18.1132 125.043 18.1132C127.725 18.1132 129.588 16.221 129.588 12.7778C129.588 9.354 127.725 7.46175 125.043 7.46175ZM125.043 16.1955C123.694 16.1955 123.015 15.1575 123.015 12.798C123.015 10.413 123.694 9.37425 125.043 9.37425C126.396 9.37425 127.071 10.4122 127.071 12.7778C127.071 15.1575 126.396 16.1955 125.043 16.1955ZM135.651 18.1132C136.78 18.1132 137.575 17.91 138.169 17.4833V15.5055C137.555 15.933 136.821 16.1955 135.796 16.1955C134.053 16.1955 133.339 14.8545 133.339 12.7327C133.339 10.512 134.218 9.37425 135.816 9.37425C136.756 9.37425 137.68 9.702 138.169 10.005V7.9485C137.659 7.665 136.756 7.461 135.552 7.461C132.435 7.461 130.821 9.67725 130.821 12.7972C130.821 16.221 132.395 18.1132 135.651 18.1132ZM147.265 9.57825V7.665H139.093V9.5775H141.96V17.91H144.397V9.5775H147.265V9.57825ZM148.698 7.66575V17.91H152.364C154.782 17.91 156.5 16.6875 156.5 14.283C156.5 12.003 154.962 10.8 152.404 10.8H151.135V7.665H148.698V7.66575ZM152.22 15.9923H151.135V12.7125H152.279C153.348 12.7125 153.982 13.1842 153.982 14.3617C153.982 15.5445 153.283 15.9915 152.22 15.9915V15.9923Z" fill="black" fill-opacity="0.92"/>
</g>
<defs>
<clipPath id="clip0_4878_110505">
<rect width="24.75" height="24" fill="white" transform="translate(0.5)"/>
</clipPath>
<clipPath id="clip1_4878_110505">
<rect width="125.25" height="16.5" fill="white" transform="translate(31.25 3.75)"/>
</clipPath>
</defs>
</svg>
